<?xml version="1.0" encoding="utf-8"?><svg xmlns="http://www.w3.org/2000/svg" xmlns:xlink="http://www.w3.org/1999/xlink"><symbol viewBox="0 0 48 48" id="arrow-right" xmlns="http://www.w3.org/2000/svg"><path fill-rule="evenodd" clip-rule="evenodd" d="M12 24a1.5 1.5 0 0 1 1.5-1.5h17.379l-6.441-6.438a1.502 1.502 0 1 1 2.124-2.124l9 9a1.5 1.5 0 0 1 0 2.124l-9 9a1.502 1.502 0 1 1-2.124-2.124l6.441-6.438H13.5A1.5 1.5 0 0 1 12 24Z"/></symbol><symbol fill="none" viewBox="0 0 84 84" id="box" xmlns="http://www.w3.org/2000/svg"><path d="M38.602 8.89a7 7 0 0 1 6.797 0L71.7 23.499a3.5 3.5 0 0 1 1.799 3.059V55.38a7 7 0 0 1-3.602 6.118l-24.5 13.616a7 7 0 0 1-6.797 0l-24.5-13.616a7 7 0 0 1-3.601-6.114V26.558a3.5 3.5 0 0 1 1.799-3.059L38.605 8.89h-.003Z" stroke="url(#ba)" stroke-width="4" stroke-linecap="round" stroke-linejoin="round"/><path d="m26.25 15.75 31.5 17.5V45.5M21 43.148 31.5 49" stroke="url(#bb)" stroke-width="4" stroke-linecap="round" stroke-linejoin="round"/><path d="M10.5 24.5 42 42m0 0 31.5-17.5M42 42v35" stroke="url(#bc)" stroke-width="4" stroke-linejoin="round"/><defs><linearGradient id="ba" x1="10.5" y1="42.002" x2="73.5" y2="42.002" gradientUnits="userSpaceOnUse"><stop stop-color="#2AF598"/><stop offset="1" stop-color="#009EFD"/></linearGradient><linearGradient id="bb" x1="21" y1="32.375" x2="57.75" y2="32.375" gradientUnits="userSpaceOnUse"><stop stop-color="#2AF598"/><stop offset="1" stop-color="#009EFD"/></linearGradient><linearGradient id="bc" x1="10.5" y1="50.75" x2="73.5" y2="50.75" gradientUnits="userSpaceOnUse"><stop stop-color="#2AF598"/><stop offset="1" stop-color="#009EFD"/></linearGradient></defs></symbol><symbol viewBox="0 0 32 38" id="cart" xmlns="http://www.w3.org/2000/svg"><g clip-path="url(#ca)"><path d="M8 8.714c0-4.418 3.579-8 8-8 4.421 0 8 3.582 8 8v3.429h4.571A3.43 3.43 0 0 1 32 15.57V30.43a6.859 6.859 0 0 1-6.857 6.857H6.857A6.858 6.858 0 0 1 0 30.429V15.572a3.429 3.429 0 0 1 3.429-3.43H8V8.715Zm3.429 3.429h9.142V8.714A4.573 4.573 0 0 0 16 4.143a4.573 4.573 0 0 0-4.571 4.571v3.429ZM9.714 19a1.71 1.71 0 0 0 1.715-1.714 1.71 1.71 0 0 0-1.715-1.715A1.71 1.71 0 0 0 8 17.287C8 18.236 8.764 19 9.714 19Zm12.572-3.428a1.71 1.71 0 0 0-1.715 1.714c0 .95.765 1.714 1.715 1.714A1.71 1.71 0 0 0 24 17.286a1.71 1.71 0 0 0-1.714-1.715Z"/></g><defs><clipPath id="ca"><path transform="translate(0 .714)" d="M0 0h32v36.571H0z"/></clipPath></defs></symbol><symbol viewBox="0 0 512.012 512.012" xml:space="preserve" id="chevron-down" xmlns="http://www.w3.org/2000/svg"><path d="M505.325 129.52c-9.241-9.802-24.699-10.167-34.452-.951l-214.88 203.566L41.138 128.57c-9.753-9.241-25.187-8.851-34.452.951-9.265 9.777-8.851 25.211.927 34.476l231.63 219.439a24.328 24.328 0 0 0 16.75 6.681 24.39 24.39 0 0 0 16.775-6.681l231.63-219.439c9.778-9.266 10.192-24.699.927-34.477z"/></symbol><symbol fill="none" viewBox="0 0 68 68" id="light" xmlns="http://www.w3.org/2000/svg"><path d="M34 4.25v4.463" stroke="url(#ea)" stroke-width="4" stroke-linecap="round" stroke-linejoin="round"/><path fill-rule="evenodd" clip-rule="evenodd" d="m55.038 12.963-3.157 3.156 3.155-3.155.002-.002Z" fill="url(#eb)"/><path d="m55.038 12.963-3.157 3.156" stroke="url(#ec)" stroke-width="4" stroke-linecap="round" stroke-linejoin="round"/><path d="M63.75 34h-4.462" stroke="url(#ed)" stroke-width="4" stroke-linecap="round" stroke-linejoin="round"/><path fill-rule="evenodd" clip-rule="evenodd" d="M55.038 55.038 51.88 51.88l3.155 3.155.002.002Z" fill="url(#ee)"/><path d="M55.038 55.038 51.88 51.88" stroke="url(#ef)" stroke-width="4" stroke-linecap="round" stroke-linejoin="round"/><path d="M34 63.75v-4.462" stroke="url(#eg)" stroke-width="4" stroke-linecap="round" stroke-linejoin="round"/><path fill-rule="evenodd" clip-rule="evenodd" d="m12.963 55.038 3.156-3.157-3.155 3.155-.002.002Z" fill="url(#eh)"/><path d="m12.963 55.038 3.156-3.157" stroke="url(#ei)" stroke-width="4" stroke-linecap="round" stroke-linejoin="round"/><path d="M4.25 34h4.463" stroke="url(#ej)" stroke-width="4" stroke-linecap="round" stroke-linejoin="round"/><path fill-rule="evenodd" clip-rule="evenodd" d="m12.963 12.963 3.156 3.156-3.155-3.155-.002-.002Z" fill="url(#ek)"/><path d="m12.963 12.963 3.156 3.156" stroke="url(#el)" stroke-width="4" stroke-linecap="round" stroke-linejoin="round"/><path d="M34 51c9.388 0 17-7.612 17-17s-7.612-17-17-17-17 7.612-17 17 7.612 17 17 17Z" stroke="url(#em)" stroke-width="4" stroke-linejoin="round"/><defs><linearGradient id="ea" x1="34" y1="6.481" x2="35" y2="6.481" gradientUnits="userSpaceOnUse"><stop stop-color="#2AF598"/><stop offset="1" stop-color="#009EFD"/></linearGradient><linearGradient id="eb" x1="51.881" y1="14.541" x2="55.038" y2="14.541" gradientUnits="userSpaceOnUse"><stop stop-color="#2AF598"/><stop offset="1" stop-color="#009EFD"/></linearGradient><linearGradient id="ec" x1="51.881" y1="14.541" x2="55.038" y2="14.541" gradientUnits="userSpaceOnUse"><stop stop-color="#2AF598"/><stop offset="1" stop-color="#009EFD"/></linearGradient><linearGradient id="ed" x1="59.288" y1="34.5" x2="63.75" y2="34.5" gradientUnits="userSpaceOnUse"><stop stop-color="#2AF598"/><stop offset="1" stop-color="#009EFD"/></linearGradient><linearGradient id="ee" x1="51.881" y1="53.459" x2="55.038" y2="53.459" gradientUnits="userSpaceOnUse"><stop stop-color="#2AF598"/><stop offset="1" stop-color="#009EFD"/></linearGradient><linearGradient id="ef" x1="51.881" y1="53.459" x2="55.038" y2="53.459" gradientUnits="userSpaceOnUse"><stop stop-color="#2AF598"/><stop offset="1" stop-color="#009EFD"/></linearGradient><linearGradient id="eg" x1="34" y1="61.519" x2="35" y2="61.519" gradientUnits="userSpaceOnUse"><stop stop-color="#2AF598"/><stop offset="1" stop-color="#009EFD"/></linearGradient><linearGradient id="eh" x1="12.963" y1="53.459" x2="16.119" y2="53.459" gradientUnits="userSpaceOnUse"><stop stop-color="#2AF598"/><stop offset="1" stop-color="#009EFD"/></linearGradient><linearGradient id="ei" x1="12.963" y1="53.459" x2="16.119" y2="53.459" gradientUnits="userSpaceOnUse"><stop stop-color="#2AF598"/><stop offset="1" stop-color="#009EFD"/></linearGradient><linearGradient id="ej" x1="4.25" y1="34.5" x2="8.713" y2="34.5" gradientUnits="userSpaceOnUse"><stop stop-color="#2AF598"/><stop offset="1" stop-color="#009EFD"/></linearGradient><linearGradient id="ek" x1="12.963" y1="14.541" x2="16.119" y2="14.541" gradientUnits="userSpaceOnUse"><stop stop-color="#2AF598"/><stop offset="1" stop-color="#009EFD"/></linearGradient><linearGradient id="el" x1="12.963" y1="14.541" x2="16.119" y2="14.541" gradientUnits="userSpaceOnUse"><stop stop-color="#2AF598"/><stop offset="1" stop-color="#009EFD"/></linearGradient><linearGradient id="em" x1="17" y1="34" x2="51" y2="34" gradientUnits="userSpaceOnUse"><stop stop-color="#2AF598"/><stop offset="1" stop-color="#009EFD"/></linearGradient></defs></symbol><symbol fill="none" viewBox="0 0 84 84" id="payment" xmlns="http://www.w3.org/2000/svg"><path d="M41.758 7.203a5.249 5.249 0 0 1 7.424-.787L66.308 20.4a5.25 5.25 0 0 1 1.312 6.537A15.752 15.752 0 0 0 63 26.25h-1.575l1.565-1.785-9.02-7.366-7.44 9.156h-6.767l10.138-12.474-4.042-3.302-12.59 15.771h-6.72L41.76 7.203ZM55.126 52.5a2.625 2.625 0 0 0 0 5.25h5.25a2.625 2.625 0 0 0 0-5.25h-5.25ZM15.75 28.875a2.625 2.625 0 0 1 2.625-2.625h2.93L25.477 21h-7.103a7.875 7.875 0 0 0-7.875 7.875v31.5A13.125 13.125 0 0 0 23.625 73.5H63A10.5 10.5 0 0 0 73.5 63V42A10.5 10.5 0 0 0 63 31.5H18.375a2.625 2.625 0 0 1-2.625-2.625Zm0 31.5V36.304a7.898 7.898 0 0 0 2.625.446H63A5.25 5.25 0 0 1 68.25 42v21A5.25 5.25 0 0 1 63 68.25H23.625a7.875 7.875 0 0 1-7.875-7.875Z" fill="url(#fa)"/><defs><linearGradient id="fa" x1="10.5" y1="39.365" x2="73.5" y2="39.365" gradientUnits="userSpaceOnUse"><stop stop-color="#2AF598"/><stop offset="1" stop-color="#009EFD"/></linearGradient></defs></symbol><symbol fill="none" viewBox="0 0 68 68" id="plant" xmlns="http://www.w3.org/2000/svg"><path d="M37.188 28.688C37.188 34 34 41.438 34 41.438m1.063-10.626s3.187-8.5-4.25-14.875c-7.438-6.374-19.125-4.25-19.125-4.25s0 8.5 6.374 14.876c6.375 6.375 17 4.25 17 4.25Zm4.25-6.375s-3.188-8.5 4.25-14.874C51 3.188 62.686 5.313 62.686 5.313s0 8.5-6.374 14.875c-6.376 6.375-17 4.25-17 4.25Zm-17 14.875h27.625s2.124 19.126-13.813 19.126c-15.938 0-13.813-19.126-13.813-19.126Z" stroke="url(#ga)" stroke-width="4" stroke-linecap="round" stroke-linejoin="round"/><defs><linearGradient id="ga" x1="11.688" y1="31.705" x2="62.688" y2="31.705" gradientUnits="userSpaceOnUse"><stop stop-color="#2AF598"/><stop offset="1" stop-color="#009EFD"/></linearGradient></defs></symbol><symbol viewBox="0 0 24 24" xml:space="preserve" id="plus" xmlns="http://www.w3.org/2000/svg"><path fill-rule="evenodd" d="M13.194 4.115a1.115 1.115 0 1 0-2.23 0v6.69H4.115a1.115 1.115 0 1 0 0 2.23h6.85v6.85a1.115 1.115 0 1 0 2.23 0v-6.85h6.69a1.115 1.115 0 1 0 0-2.23h-6.69z" clip-rule="evenodd"/></symbol><symbol viewBox="0 0 24 24" xml:space="preserve" id="search" xmlns="http://www.w3.org/2000/svg"><g fill-rule="evenodd" clip-rule="evenodd"><path d="M16.293 16.293a1 1 0 0 1 1.414 0l4 4a1 1 0 0 1-1.414 1.414l-4-4a1 1 0 0 1 0-1.414z"/><path d="M11 4a7 7 0 1 0 0 14 7 7 0 0 0 0-14zm-9 7a9 9 0 1 1 18 0 9 9 0 0 1-18 0z"/></g></symbol><symbol viewBox="0 0 24 25" id="star" xmlns="http://www.w3.org/2000/svg"><path d="m21.284 8.55-5.951-.864-2.66-5.393a.753.753 0 0 0-1.345 0l-2.66 5.393-5.952.865a.749.749 0 0 0-.414 1.28l4.305 4.197-1.017 5.927a.749.749 0 0 0 1.087.79L12 17.947l5.323 2.798a.749.749 0 0 0 1.087-.79l-1.017-5.927 4.305-4.198a.749.749 0 0 0 .218-.429.747.747 0 0 0-.632-.85Z"/></symbol><symbol fill="none" viewBox="0 0 84 84" id="support" xmlns="http://www.w3.org/2000/svg"><g clip-path="url(#ka)"><path d="M69.783 29H73.5a7 7 0 0 1 7 7v14a7 7 0 0 1-7 7h-3.717A28.004 28.004 0 0 1 42 81.5v-7a21 21 0 0 0 21-21v-21a21 21 0 1 0-42 0V57H10.5a7 7 0 0 1-7-7V36a7 7 0 0 1 7-7h3.717a28.003 28.003 0 0 1 55.566 0ZM10.5 36v14H14V36h-3.5ZM70 36v14h3.5V36H70ZM27.16 56.248l3.71-5.936A20.902 20.902 0 0 0 42 53.5a20.902 20.902 0 0 0 11.13-3.188l3.71 5.936A27.87 27.87 0 0 1 42 60.5a27.87 27.87 0 0 1-14.84-4.252Z" fill="url(#kb)"/></g><defs><linearGradient id="kb" x1="3.5" y1="43.002" x2="80.5" y2="43.002" gradientUnits="userSpaceOnUse"><stop stop-color="#2AF598"/><stop offset="1" stop-color="#009EFD"/></linearGradient><clipPath id="ka"><path fill="#fff" d="M0 0h84v84H0z"/></clipPath></defs></symbol><symbol fill="none" viewBox="0 0 68 68" id="temperature" xmlns="http://www.w3.org/2000/svg"><path d="M28.333 25.5h11.334M28.333 38.25a11.333 11.333 0 1 0 11.334 0V14.167a5.667 5.667 0 1 0-11.334 0V38.25Z" stroke="url(#la)" stroke-width="4" stroke-linecap="round" stroke-linejoin="round"/><defs><linearGradient id="la" x1="22.667" y1="33.949" x2="45.333" y2="33.949" gradientUnits="userSpaceOnUse"><stop stop-color="#2AF598"/><stop offset="1" stop-color="#009EFD"/></linearGradient></defs></symbol><symbol fill="none" viewBox="0 0 68 68" id="water" xmlns="http://www.w3.org/2000/svg"><path d="M34 62.333a22.667 22.667 0 0 1-22.667-22.666c0-9.923 7.679-17.859 14.43-25.132L34 5.667l8.236 8.868c6.752 7.276 14.43 15.212 14.43 25.132A22.666 22.666 0 0 1 34 62.333v0Z" stroke="url(#ma)" stroke-width="4" stroke-linecap="round" stroke-linejoin="round"/><defs><linearGradient id="ma" x1="11.333" y1="34" x2="56.667" y2="34" gradientUnits="userSpaceOnUse"><stop stop-color="#2AF598"/><stop offset="1" stop-color="#009EFD"/></linearGradient></defs></symbol></svg>